<?xml version="1.0" encoding="iso-8859-1"?>
<!-- Generator: Adobe Illustrator 29.1.0, SVG Export Plug-In . SVG Version: 9.03 Build 55587)  -->
<svg version="1.1" id="Layer_1" xmlns="http://www.w3.org/2000/svg" xmlns:xlink="http://www.w3.org/1999/xlink" x="0px" y="0px"
	 viewBox="0 0 499.9997864 153.4069824" style="enable-background:new 0 0 499.9997864 153.4069824;" xml:space="preserve">
<g>
	<path style="fill:#FFFFFF;" d="M0,0v77.1526489c0,19.7785034,10.5507812,38.0551758,27.6791992,47.9454956l49.0244141,28.3088379
		l49.0244141-28.3088379c17.1274414-9.8903198,27.6791992-28.1669922,27.6791992-47.9454956V0H0z M111.3051758,64.6034546
		c-3.2817383-3.7054443-9.2475586-6.2133179-16.0688477-6.2133179h-7.4135742v27.9094238
		c0,7.4118652,2.012207,13.8994751,4.9975586,17.4761353H60.5751953c2.9921875-3.572998,5.0083008-10.0689087,5.0083008-17.4902954
		V58.3901367h-7.4130859c-6.8212891,0-12.7875977,2.5078735-16.0688477,6.2133179V40.6073608h69.2036133V64.6034546z"/>
	<g>
		<g>
			<path style="fill:#FFFFFF;" d="M189.5773163,103.7725143V40.6109695h64.1548004v14.4356804h-45.0245361v9.0250206h22.2867126
				c15.79039,0,27.520752,3.6089172,27.520752,19.8490601c0,16.2428589-11.7303619,19.8517838-27.520752,19.8517838H189.5773163z
				 M208.7075806,78.5073547v10.8267593h22.3763885c6.4976959,0,8.0303955-1.2609482,8.0303955-5.4133835
				c0-4.1497116-1.5326996-5.4133759-8.0303955-5.4133759H208.7075806z"/>
			<path style="fill:#FFFFFF;" d="M364.4199219,80.3118134v23.460701h-19.130249V40.6109695h19.130249v23.0095863h31.309021
				V40.6109695h19.1302795v63.1615448h-19.1302795v-23.460701H364.4199219z"/>
			<path style="fill:#FFFFFF;" d="M445.6812134,79.9503784v23.8221359h-19.1302795V40.6109695h19.1302795v23.5503769h11.4585876
				l19.9414673-23.5503769h21.6548767l-24.9934082,29.5045547v1.1739883l26.2570496,32.4830017h-23.7310791l-19.2185974-23.8221359
				H445.6812134z"/>
		</g>
		<g>
			<path style="fill:#FFFFFF;" d="M314.8383179,94.4784546h-29.8673401l-3.3385315,9.2940598h-20.0311279l24.994751-63.1615448
				h27.6104126l24.9037476,63.1615448h-20.9333801L314.8383179,94.4784546z M309.695343,80.0427704l-8.8429565-24.9037209
				h-1.6250916l-9.0223083,24.9037209H309.695343z"/>
		</g>
	</g>
</g>
</svg>
