<svg width="227" height="36" viewBox="0 0 227 36" fill="none" xmlns="http://www.w3.org/2000/svg">
<g clip-path="url(#clip0_497_8201)">
<path d="M18.0084 0.683594C8.51819 0.683594 0.834961 8.36682 0.834961 17.8571C0.834961 27.3473 8.51819 35.0305 18.0084 35.0305C27.4987 35.0305 35.1819 27.3473 35.1819 17.8571C35.1819 8.36682 27.4849 0.683594 18.0084 0.683594ZM20.6982 25.4575L15.5531 18.8088H15.5117V25.4575H11.5253V10.1187H15.5117V16.4501H15.5531L20.381 10.1187H25.3192L19.2223 17.3743L25.871 25.4437H20.6982V25.4575Z" fill="black"/>
<path d="M56.3419 0.683594C46.8517 0.683594 39.1685 8.36682 39.1685 17.8571C39.1685 27.3473 46.8517 35.0305 56.3419 35.0305C65.8322 35.0305 73.5154 27.3473 73.5154 17.8571C73.5154 8.36682 65.8184 0.683594 56.3419 0.683594ZM63.3492 25.4575H59.3628V19.1675H53.6107V25.4575H49.6243V10.1187H53.6107V16.0363H59.3628V10.1187H63.3492V25.4575Z" fill="black"/>
<path d="M133.008 0.683594C123.518 0.683594 115.835 8.36682 115.835 17.8571C115.835 27.3473 123.518 35.0305 133.008 35.0305C142.499 35.0305 150.182 27.3473 150.182 17.8571C150.182 8.36682 142.485 0.683594 133.008 0.683594ZM139.781 25.4575H135.795V14.0637H130.043V25.4575H126.056V10.1187H139.781V25.4575Z" fill="black"/>
<path d="M171.342 0.683594C161.852 0.683594 154.168 8.36682 154.168 17.8571C154.168 27.3473 161.852 35.0305 171.342 35.0305C180.832 35.0305 188.515 27.3473 188.515 17.8571C188.515 8.36682 180.832 0.683594 171.342 0.683594ZM173.935 25.4575L168.79 18.8088H168.749V25.4575H164.762V10.1187H168.749V16.4501H168.79L173.618 10.1187H178.556L172.459 17.3743L179.108 25.4437H173.935V25.4575Z" fill="black"/>
<path d="M209.689 14.8638L208.034 19.7468H211.359L209.731 14.8638H209.689Z" fill="black"/>
<path d="M209.662 0.683594C200.172 0.683594 192.488 8.36682 192.488 17.8571C192.488 27.3473 200.172 35.0305 209.662 35.0305C219.152 35.0305 226.835 27.3473 226.835 17.8571C226.835 8.36682 219.152 0.683594 209.662 0.683594ZM213.427 25.4575L212.434 22.7953H206.944L205.882 25.4575H201.647L207.551 10.1187H211.91L217.69 25.4575H213.441H213.427Z" fill="black"/>
<path d="M94.6755 13.4705C92.2892 13.4705 90.3442 15.4016 90.3442 17.5259C90.3442 20.1743 92.303 22.1055 94.6755 22.1055C97.0481 22.1055 99.0068 20.1743 99.0068 17.5259C99.0068 15.4154 97.0481 13.4705 94.6755 13.4705Z" fill="black"/>
<path d="M94.6754 0.683594C85.1852 0.683594 77.502 8.36682 77.502 17.8571C77.502 27.3473 85.1852 35.0305 94.6754 35.0305C104.166 35.0305 111.849 27.3473 111.849 17.8571C111.849 8.36682 104.152 0.683594 94.6754 0.683594ZM94.6754 25.9679C89.751 25.9679 86.1921 22.4642 86.1921 17.5122C86.1921 12.8774 90.2613 9.62207 94.6754 9.62207C99.0895 9.62207 103.159 12.8774 103.159 17.5122C103.159 22.478 99.5999 25.9679 94.6754 25.9679Z" fill="black"/>
</g>
<defs>
<clipPath id="clip0_497_8201">
<rect width="226" height="34.3469" fill="white" transform="translate(0.834961 0.683594)"/>
</clipPath>
</defs>
</svg>
