<?xml version="1.0" encoding="utf-8"?>
<!-- Generator: Adobe Illustrator 22.1.0, SVG Export Plug-In . SVG Version: 6.00 Build 0)  -->
<svg version="1.1" id="Слой_1" xmlns:xodm="http://www.corel.com/coreldraw/odm/2003"
	 xmlns="http://www.w3.org/2000/svg" xmlns:xlink="http://www.w3.org/1999/xlink" x="0px" y="0px" viewBox="0 0 841.9 595.3"
	 style="enable-background:new 0 0 841.9 595.3;" xml:space="preserve">
<style type="text/css">
	.st0{fill:#333333;}
</style>
<g id="Слой_x0020_1">
	<g id="_1721258228928">
		<path class="st0" d="M117.1,310.4c0,1.8-1.5,3.3-3.3,3.3c-1.3,0-2.4-0.7-3-1.9L82.2,254c-3.6-7.3-11-11.9-19.2-11.9H34.3
			c-5.9,0-10.7,4.8-10.7,10.7v83.7h28.3v-68c0-2,1.6-3.7,3.6-3.7c1.4,0,2.7,0.8,3.3,2l28.5,57.7c3.6,7.3,11,11.9,19.2,11.9h28.2
			c5.9,0,10.7-4.8,10.7-10.7v-83.7h-28.2L117.1,310.4L117.1,310.4z"/>
		<path class="st0" d="M797.6,242.1v68.3c0,1.8-1.5,3.3-3.3,3.3c-1.3,0-2.4-0.7-3-1.9L762.7,254c-3.6-7.3-11-11.9-19.2-11.9h-28.7
			c-5.9,0-10.7,4.8-10.7,10.7v83.7h28.3v-68.3c0-1.8,1.5-3.3,3.3-3.3h0.5c1.3,0,2.4,0.7,3,1.9l28.6,57.9c3.6,7.3,11,11.9,19.2,11.9
			h28.2c5.9,0,10.7-4.8,10.7-10.7v-83.7L797.6,242.1L797.6,242.1z"/>
		<path class="st0" d="M369.5,306.6c0,3.9-3.2,7.1-7.1,7.1h-40.5c-3.9,0-7.1-3.2-7.1-7.1v-64.5h-28.3v73c0,11.8,9.6,21.4,21.4,21.4
			h68.5c11.8,0,21.4-9.6,21.4-21.4v-73h-28.2V306.6z"/>
		<path class="st0" d="M583.8,252.8v73c0,5.9,4.8,10.7,10.7,10.7h92v-22.7H612V301h65.8v-22.7H612v-13.5h74.4v-22.7h-92
			C588.6,242.1,583.8,246.9,583.8,252.8L583.8,252.8z"/>
		<path class="st0" d="M556.2,242.1h-28.5c-8.1,0-16.5,4.2-19.2,11.9l-18.4,53.1L472.5,254c-2.7-7.7-11-11.9-19.2-11.9h-28.5
			c-5.9,0-10.7,4.8-10.7,10.7v83.7h28.2v-68.4c0-1.8,1.5-3.3,3.3-3.3c1.2,0,2.4,0.7,2.9,1.8l24.1,64c1.4,3.5,5.5,5.8,9.5,5.8h16.5
			c4.1,0,8.1-2.3,9.6-5.9l24.1-63.9c0.6-1.1,1.7-1.8,2.9-1.8h0c1.8,0,3.3,1.5,3.3,3.3v68.4h28.2v-83.7
			C566.9,246.9,562.1,242.1,556.2,242.1L556.2,242.1z"/>
		<path class="st0" d="M200.7,294.3l12.9-27.3c0.7-1.4,2-2.3,3.4-2.3c1.4,0,2.8,0.9,3.4,2.3l12.9,27.3H200.7z M253.4,336.4h31.7
			L245,253.7c-3.4-7.1-10.2-11.6-17.5-11.6h-20.2c-7.4,0-14.1,4.5-17.5,11.6h0l-40.1,82.8h31.2L190,317h54.2L253.4,336.4z"/>
	</g>
</g>
</svg>
