<?xml version="1.0" encoding="UTF-8"?>
<!DOCTYPE svg PUBLIC "-//W3C//DTD SVG 1.1//EN" "http://www.w3.org/Graphics/SVG/1.1/DTD/svg11.dtd">
<!-- Creator: CorelDRAW 2019 (64-Bit) -->
<svg xmlns="http://www.w3.org/2000/svg" xml:space="preserve" width="297mm" height="210mm" version="1.1" style="shape-rendering:geometricPrecision; text-rendering:geometricPrecision; image-rendering:optimizeQuality; fill-rule:evenodd; clip-rule:evenodd"
viewBox="0 0 29700 21000"
 xmlns:xlink="http://www.w3.org/1999/xlink"
 xmlns:xodm="http://www.corel.com/coreldraw/odm/2003">
 <defs>
  <style type="text/css">
   <![CDATA[
    .fil0 {fill:#FEFEFE;fill-rule:nonzero}
   ]]>
  </style>
 </defs>
 <g id="Слой_x0020_1">
  <metadata id="CorelCorpID_0Corel-Layer"/>
  <g id="_1721258228928">
   <path class="fil0" d="M4131.41 10951.81c0,64.8 -52.55,117.16 -117.35,117.16 -44.59,0 -85.27,-25.35 -105.05,-65.3l-1009.14 -2042.65c-127.13,-257.42 -389.34,-420.39 -676.55,-420.39l-1013.59 0c-208.49,0 -377.51,168.83 -377.51,377.32l0 2951.33 996.73 0 0 -2399.85c0,-71.16 57.68,-128.89 128.69,-128.89 49.08,0 93.91,28.09 115.45,71.84l1005.96 2036.3c127.18,257.57 389.58,420.6 676.75,420.6l994.83 0c208.44,0 377.32,-169.03 377.32,-377.52l0 -2951.13 -996.54 0 0 2411.18z"/>
   <path class="fil0" d="M28138.83 8540.53l0 2411.23c0,64.95 -52.55,117.31 -117.31,117.31 -44.64,0 -85.27,-25.3 -105.1,-65.3l-1009.09 -2042.65c-127.32,-257.57 -389.58,-420.59 -676.75,-420.59l-1013.43 0c-208.44,0 -377.47,169.03 -377.47,377.32l0 2951.33 996.68 0 0 -2411.18c0,-64.81 52.55,-117.36 117.17,-117.36l18.75 0c44.49,0 85.32,25.35 105.1,65.49l1009.14 2042.5c127.12,257.58 389.33,420.55 676.74,420.55l994.78 0c208.3,0 377.33,-168.84 377.33,-377.32l0 -2951.33 -996.54 0z"/>
   <path class="fil0" d="M13035.21 10817.5c0,138.99 -112.67,251.52 -251.57,251.52l-1428.26 0c-139.05,0 -251.52,-112.53 -251.52,-251.52l0 -2277.02 -996.73 0 0 2573.86c0,416.93 337.86,754.79 754.84,754.79l2414.93 0c416.98,0 754.84,-337.86 754.84,-754.79l0 -2573.86 -996.53 0 0 2277.02z"/>
   <path class="fil0" d="M20594.24 8917.95l0 2573.81c0,208.49 169.03,377.52 377.33,377.52l3244.2 0 0 -800.12 -2624.99 0 0 -452.28 2322.83 0 0 -800.12 -2322.83 0 0 -476.02 2624.99 0 0 -800.11 -3244.2 0c-208.3,0 -377.33,168.83 -377.33,377.32z"/>
   <path class="fil0" d="M19622.37 8540.53l-1005.13 0c-287.22,0 -581.32,147.83 -676.75,420.59l-648.67 1873.28 -623.51 -1873.28c-94.11,-272.76 -389.58,-420.59 -676.8,-420.59l-1004.06 0c-208.49,0 -377.51,169.03 -377.51,377.32l0 2951.33 996.53 0 0 -2412.55c0,-63.93 52.02,-115.99 115.95,-115.99 43.61,0 83.56,24.47 103.39,63.25l850.41 2259.39c50.99,123.56 194.33,205.9 336.15,205.9l582.49 0c143,0 285.85,-82.34 337.52,-208.64l851.1 -2255.77c19.49,-39.32 59.78,-64.13 103.73,-64.13l0.15 0c63.93,0 115.79,52.06 115.79,115.99l0 2412.55 996.54 0 0 -2951.33c0,-208.29 -168.88,-377.32 -377.32,-377.32z"/>
   <path class="fil0" d="M7081.23 10382.84l456.19 -962.74c23.64,-48.79 70.13,-79.46 120.97,-79.46 50.79,0 97.48,30.67 121.12,79.46l456.2 962.74 -1154.48 0zm1858.82 1486.34l1119.7 0 -1415.37 -2920.32c-119.55,-250.83 -358.18,-408.33 -618.68,-408.33l-713.81 0c-260.5,0 -499.13,157.5 -618.68,408.33l0.68 0 -1416.05 2920.32 1099.04 0 325.12 -686.22 1912.93 0 325.12 686.22z"/>
  </g>
 </g>
</svg>
