<?xml version="1.0" encoding="UTF-8" standalone="no"?>
<svg
   version="1.1"
   width="170.0787pt"
   height="56.692902pt"
   id="svg4"
   viewBox="0 0 170.0787 56.692902"
   sodipodi:docname="dark-theme.cdr"
   xmlns:inkscape="http://www.inkscape.org/namespaces/inkscape"
   xmlns:sodipodi="http://sodipodi.sourceforge.net/DTD/sodipodi-0.dtd"
   xmlns="http://www.w3.org/2000/svg"
   xmlns:svg="http://www.w3.org/2000/svg">
  <defs
     id="defs4" />
  <sodipodi:namedview
     id="namedview4"
     pagecolor="#ffffff"
     bordercolor="#000000"
     borderopacity="0.25"
     inkscape:showpageshadow="2"
     inkscape:pageopacity="0.0"
     inkscape:pagecheckerboard="0"
     inkscape:deskcolor="#d1d1d1"
     inkscape:document-units="pt" />
  <g
     id="Layer1000">
    <g
       id="Layer1001">
      <path
         d="m 129.2711,14.8213 c 0.4902,0 0.9553,0.4223 0.9553,0.9009 v 10.1095 c 0,0.1686 -0.1795,0.3396 -0.3829,0.2427 L 119.231,21.3645 c -0.8864,-0.3937 -1.1257,-0.3937 -2.0121,0 l -10.6122,4.7099 c -0.2035,0.0969 -0.3831,-0.0741 -0.3831,-0.2427 V 15.7222 c 0,-0.4786 0.4649,-0.9009 0.9551,-0.9009 z"
         style="fill:#ffffff;fill-rule:evenodd"
         id="path2" />
      <path
         d="m 106.8011,32.4066 10.9714,-4.8664 c 0.3142,-0.1411 0.5908,-0.1411 0.9052,0 l 10.9711,4.8664 c 0.5816,0.2574 0.4482,0.6427 0.0107,0.836 l -10.7494,4.8486 c -0.5597,0.2527 -0.8105,0.2527 -1.3702,0 l -10.7493,-4.8486 c -0.4375,-0.1933 -0.5708,-0.5786 0.0105,-0.836 z"
         style="fill:#ffffff;fill-rule:evenodd"
         id="path3" />
    </g>
    <path
       d="m 55.8235,15.7142 -0.1259,0.5354 -4.8512,16.8218 c -0.1681,0.6092 -0.3781,1.1655 -0.6301,1.6695 -0.3149,0.6513 -0.6822,1.1551 -1.1024,1.5123 -0.4199,0.3569 -0.903,0.6353 -1.449,0.8347 -0.5459,0.1997 -1.2286,0.2994 -2.0474,0.2994 -1.1552,0 -2.3312,-0.2626 -3.5283,-0.7876 -0.3991,-0.189 -0.6407,-0.3465 -0.7246,-0.4726 -0.084,-0.126 -0.0946,-0.2729 -0.0315,-0.4408 l 0.9764,-2.3629 c 0.021,-0.084 0.0682,-0.1364 0.1418,-0.1573 0.0735,-0.0211 0.1313,-0.0421 0.1733,-0.0631 0.084,0 0.2519,0.0735 0.5041,0.2204 0.7561,0.4411 1.4176,0.6617 1.9846,0.6617 0.6091,0 1.1235,-0.1786 1.5435,-0.5356 0.4201,-0.357 0.7245,-0.9032 0.9134,-1.6381 l 0.2837,-1.0396 H 45.775 c -0.1683,0 -0.2941,-0.0943 -0.3784,-0.2834 L 40.01,16.1865 39.8526,15.6511 c 0,-0.1891 0.3045,-0.3152 0.9135,-0.3781 l 2.8351,-0.2518 c 0.1049,-0.0212 0.1995,-0.0316 0.2836,-0.0316 0.0838,0 0.1363,0 0.1573,0 0.2101,0 0.3361,0.0262 0.3781,0.0788 0.0421,0.0525 0.1155,0.236 0.2205,0.5511 l 2.4258,7.5605 1.323,4.5046 h 0.1261 L 49.6181,23.18 51.571,15.6825 c 0.0211,-0.126 0.0629,-0.2833 0.1258,-0.4724 0.0632,-0.1889 0.2522,-0.2625 0.5671,-0.2205 l 2.8983,0.3463 c 0.4409,0.0633 0.6613,0.1893 0.6613,0.3783 z m 17.2929,25.6107 c 0,0.4201 -0.2101,0.63 -0.6299,0.63 h -2.7404 c -0.2941,0 -0.4726,-0.0734 -0.5356,-0.2205 -0.0631,-0.147 -0.0945,-0.2835 -0.0945,-0.4095 V 36.8517 H 57.7754 c -0.2941,0 -0.4726,-0.0735 -0.5356,-0.2205 -0.0628,-0.1471 -0.0944,-0.2836 -0.0944,-0.4094 V 15.9031 c 0,-0.294 0.0734,-0.4726 0.2205,-0.5354 0.147,-0.0633 0.2834,-0.0947 0.4095,-0.0947 h 3.0242 c 0.2941,0 0.4725,0.0737 0.5356,0.2204 0.0629,0.1472 0.0944,0.2836 0.0944,0.4097 v 17.5464 h 5.5127 V 15.9031 c 0,-0.294 0.0737,-0.4726 0.2205,-0.5354 0.1471,-0.0633 0.2837,-0.0947 0.4095,-0.0947 h 3.0242 c 0.2941,0 0.4726,0.0737 0.5356,0.2204 0.0631,0.1472 0.0945,0.2836 0.0945,0.4097 v 17.5464 h 1.2599 c 0.4198,0 0.6299,0.2101 0.6299,0.6301 z m 14.0485,-5.9537 c 0,0.105 -0.0316,0.1994 -0.0947,0.2834 -0.0628,0.0838 -0.1573,0.1682 -0.2834,0.2522 -0.5461,0.4408 -1.2653,0.798 -2.1577,1.0709 -0.8925,0.2731 -1.8114,0.4096 -2.7565,0.4096 -2.226,0 -3.9901,-0.6196 -5.2924,-1.8586 -1.0709,-1.0082 -1.8375,-2.4468 -2.2996,-4.3158 -0.3358,-1.3651 -0.5038,-2.9823 -0.5038,-4.8512 0,-4.3472 0.9134,-7.4975 2.7405,-9.4506 1.3652,-1.4491 3.1185,-2.1736 5.2608,-2.1736 0.8821,0 1.7326,0.1261 2.5517,0.3781 0.819,0.2521 1.5435,0.651 2.1734,1.197 0.3991,0.336 0.5987,0.6092 0.5987,0.8189 0,0.0631 -0.0525,0.1996 -0.1575,0.4097 l -1.1656,1.7641 c -0.1259,0.2099 -0.2415,0.3149 -0.3465,0.3149 -0.084,0 -0.1891,-0.0368 -0.315,-0.1101 -0.1261,-0.0735 -0.2415,-0.1524 -0.3465,-0.2364 -0.4621,-0.3781 -0.8926,-0.6613 -1.2917,-0.8504 -0.3988,-0.189 -0.8399,-0.2835 -1.323,-0.2835 -1.0711,0 -1.9217,0.336 -2.5517,1.0079 -0.4829,0.5041 -0.8294,1.2759 -1.0395,2.3156 -0.2101,1.0393 -0.3151,2.5986 -0.3151,4.6779 0,1.134 0.0632,2.1945 0.189,3.1815 0.2101,1.5541 0.5566,2.6674 1.0395,3.3392 0.2731,0.3571 0.6407,0.6668 1.1027,0.9293 0.4622,0.2627 1.0185,0.3939 1.6697,0.3939 0.8399,0 1.701,-0.2625 2.583,-0.7876 0.1261,-0.084 0.2625,-0.1681 0.4095,-0.2521 0.1471,-0.0841 0.2731,-0.1259 0.378,-0.1259 0.1471,0 0.2837,0.105 0.4097,0.3149 l 0.9765,1.7642 c 0.1049,0.189 0.1575,0.3465 0.1575,0.4726 z m 15.0875,-4.9459 c 0,1.6172 -0.3673,2.9402 -1.1024,3.9691 -1.176,1.6381 -3.2447,2.4573 -6.2058,2.4573 H 89.211 c -0.2938,0 -0.4725,-0.0735 -0.5353,-0.2205 -0.063,-0.1471 -0.0947,-0.2836 -0.0947,-0.4094 V 15.9031 c 0,-0.294 0.0735,-0.4726 0.2206,-0.5354 0.147,-0.0633 0.2834,-0.0947 0.4094,-0.0947 h 11.0255 c 0.3151,0 0.4725,0.1154 0.4725,0.3465 l -0.0631,0.3151 -0.6299,2.2366 c -0.063,0.168 -0.1418,0.2941 -0.2362,0.3781 -0.0947,0.0838 -0.2573,0.1259 -0.4884,0.1259 h -6.4262 v 5.1665 h 2.205 c 0.9241,0 1.7904,0.0785 2.5989,0.236 0.8086,0.1576 1.5488,0.4673 2.2208,0.9293 0.672,0.4619 1.2076,1.0711 1.6066,1.8272 0.5042,0.9659 0.7559,2.1631 0.7559,3.5911 z m -4.2526,-0.0944 c 0,-1.0082 -0.2729,-1.7745 -0.8191,-2.2997 -0.5459,-0.5251 -1.5015,-0.7874 -2.8666,-0.7874 h -1.4489 v 6.2057 h 1.1338 c 1.2183,0 2.1212,-0.1576 2.7094,-0.4726 0.861,-0.4621 1.2914,-1.344 1.2914,-2.646 z"
       style="fill:#ffffff;fill-rule:evenodd"
       id="path4" />
  </g>
</svg>
