<?xml version="1.0" encoding="UTF-8" standalone="no"?>
<svg
   version="1.1"
   width="170.0787pt"
   height="56.692902pt"
   id="svg7"
   viewBox="0 0 170.0787 56.692902"
   sodipodi:docname="light-theme.cdr"
   xmlns:inkscape="http://www.inkscape.org/namespaces/inkscape"
   xmlns:sodipodi="http://sodipodi.sourceforge.net/DTD/sodipodi-0.dtd"
   xmlns="http://www.w3.org/2000/svg"
   xmlns:svg="http://www.w3.org/2000/svg">
  <defs
     id="defs7" />
  <sodipodi:namedview
     id="namedview7"
     pagecolor="#ffffff"
     bordercolor="#000000"
     borderopacity="0.25"
     inkscape:showpageshadow="2"
     inkscape:pageopacity="0.0"
     inkscape:pagecheckerboard="0"
     inkscape:deskcolor="#d1d1d1"
     inkscape:document-units="pt" />
  <path
     d="M 396.0901,-68.1009 H 571.3234 V 8.1972 H 396.0901 Z"
     style="fill:#1b1918;fill-rule:evenodd"
     id="path1" />
  <g
     id="Layer1000">
    <g
       id="Layer1001">
      <path
         d="m 526.8973,-41.0717 c 0.4902,0 0.9553,0.4223 0.9553,0.9009 v 10.1095 c 0,0.1686 -0.1795,0.3396 -0.3829,0.2428 l -10.6125,-4.71 c -0.8863,-0.3937 -1.1257,-0.3937 -2.0121,0 l -10.6121,4.71 c -0.2036,0.0968 -0.3832,-0.0742 -0.3832,-0.2428 v -10.1095 c 0,-0.4786 0.465,-0.9009 0.9552,-0.9009 z"
         style="fill:#ffffff;fill-rule:evenodd"
         id="path2" />
      <path
         d="m 504.4273,-23.4864 10.9715,-4.8664 c 0.3142,-0.141 0.5908,-0.141 0.9051,0 l 10.9711,4.8664 c 0.5816,0.2574 0.4482,0.6428 0.0107,0.836 l -10.7494,4.8487 c -0.5597,0.2526 -0.8105,0.2526 -1.3702,0 l -10.7493,-4.8487 c -0.4375,-0.1932 -0.5707,-0.5786 0.0105,-0.836 z"
         style="fill:#ffffff;fill-rule:evenodd"
         id="path3" />
    </g>
    <path
       d="m 453.4497,-40.1788 -0.1258,0.5355 -4.8513,16.8217 c -0.1681,0.6092 -0.378,1.1655 -0.6301,1.6696 -0.3148,0.6512 -0.6822,1.155 -1.1024,1.5122 -0.4199,0.3569 -0.9029,0.6353 -1.449,0.8347 -0.5459,0.1997 -1.2285,0.2994 -2.0474,0.2994 -1.1552,0 -2.3312,-0.2626 -3.5282,-0.7876 -0.3992,-0.189 -0.6407,-0.3465 -0.7247,-0.4726 -0.084,-0.126 -0.0945,-0.2729 -0.0314,-0.4408 l 0.9764,-2.3629 c 0.021,-0.084 0.0682,-0.1364 0.1417,-0.1573 0.0736,-0.0211 0.1313,-0.0421 0.1733,-0.0631 0.084,0 0.252,0.0736 0.5042,0.2204 0.7561,0.4412 1.4175,0.6617 1.9846,0.6617 0.6091,0 1.1234,-0.1785 1.5435,-0.5356 0.42,-0.3569 0.7244,-0.9032 0.9134,-1.6381 l 0.2836,-1.0396 h -2.0789 c -0.1683,0 -0.294,-0.0943 -0.3784,-0.2834 l -5.3866,-14.3019 -0.1574,-0.5354 c 0,-0.1891 0.3045,-0.3152 0.9135,-0.3781 l 2.8352,-0.2518 c 0.1048,-0.0211 0.1995,-0.0316 0.2836,-0.0316 0.0837,0 0.1363,0 0.1573,0 0.2101,0 0.336,0.0262 0.378,0.0788 0.0421,0.0525 0.1156,0.2361 0.2206,0.5511 l 2.4257,7.5605 1.323,4.5046 h 0.1261 l 1.1025,-4.5046 1.9529,-7.4975 c 0.0211,-0.126 0.063,-0.2833 0.1258,-0.4723 0.0633,-0.189 0.2522,-0.2626 0.5672,-0.2206 l 2.8982,0.3463 c 0.4409,0.0633 0.6613,0.1893 0.6613,0.3783 z m 17.293,25.6107 c 0,0.4201 -0.2101,0.63 -0.6299,0.63 h -2.7405 c -0.294,0 -0.4726,-0.0734 -0.5356,-0.2205 -0.0631,-0.1469 -0.0945,-0.2835 -0.0945,-0.4095 v -4.4731 h -11.3405 c -0.2941,0 -0.4726,-0.0736 -0.5356,-0.2206 -0.0629,-0.1471 -0.0945,-0.2836 -0.0945,-0.4093 v -20.3187 c 0,-0.2941 0.0735,-0.4726 0.2206,-0.5355 0.1469,-0.0632 0.2834,-0.0947 0.4095,-0.0947 h 3.0241 c 0.2941,0 0.4725,0.0737 0.5356,0.2204 0.0629,0.1472 0.0945,0.2837 0.0945,0.4098 v 17.5463 h 5.5126 v -17.5463 c 0,-0.2941 0.0737,-0.4726 0.2206,-0.5355 0.1471,-0.0632 0.2836,-0.0947 0.4095,-0.0947 h 3.0241 c 0.2941,0 0.4726,0.0737 0.5356,0.2204 0.0631,0.1472 0.0946,0.2837 0.0946,0.4098 v 17.5463 h 1.2599 c 0.4198,0 0.6299,0.2101 0.6299,0.6301 z m 14.0484,-5.9537 c 0,0.105 -0.0315,0.1994 -0.0946,0.2834 -0.0629,0.0839 -0.1573,0.1682 -0.2834,0.2522 -0.5462,0.4408 -1.2654,0.798 -2.1578,1.0709 -0.8925,0.2731 -1.8114,0.4096 -2.7564,0.4096 -2.226,0 -3.9902,-0.6195 -5.2924,-1.8586 -1.071,-1.0081 -1.8375,-2.4468 -2.2997,-4.3157 -0.3358,-1.3652 -0.5038,-2.9824 -0.5038,-4.8513 0,-4.3472 0.9134,-7.4975 2.7406,-9.4506 1.3651,-1.4491 3.1185,-2.1735 5.2607,-2.1735 0.8821,0 1.7326,0.1261 2.5517,0.378 0.819,0.2521 1.5436,0.651 2.1734,1.197 0.3991,0.336 0.5987,0.6092 0.5987,0.8189 0,0.0631 -0.0525,0.1996 -0.1575,0.4097 l -1.1656,1.7641 c -0.1258,0.2099 -0.2415,0.3149 -0.3465,0.3149 -0.084,0 -0.1891,-0.0367 -0.3149,-0.1101 -0.1261,-0.0735 -0.2415,-0.1524 -0.3465,-0.2364 -0.4622,-0.378 -0.8927,-0.6613 -1.2917,-0.8504 -0.3988,-0.189 -0.84,-0.2835 -1.323,-0.2835 -1.0712,0 -1.9217,0.3361 -2.5518,1.0079 -0.4829,0.5041 -0.8294,1.276 -1.0395,2.3156 -0.21,1.0394 -0.315,2.5987 -0.315,4.6779 0,1.1341 0.0631,2.1946 0.1889,3.1815 0.2101,1.5541 0.5566,2.6674 1.0395,3.3393 0.2731,0.357 0.6407,0.6667 1.1028,0.9293 0.4621,0.2626 1.0185,0.3938 1.6696,0.3938 0.84,0 1.7011,-0.2625 2.583,-0.7876 0.1261,-0.0839 0.2626,-0.168 0.4095,-0.252 0.1471,-0.0841 0.2731,-0.126 0.3781,-0.126 0.1471,0 0.2836,0.105 0.4096,0.3149 l 0.9765,1.7642 c 0.105,0.189 0.1575,0.3465 0.1575,0.4726 z m 15.0875,-4.9459 c 0,1.6172 -0.3672,2.9402 -1.1024,3.9692 -1.176,1.638 -3.2447,2.4573 -6.2058,2.4573 h -5.7332 c -0.2938,0 -0.4724,-0.0736 -0.5353,-0.2206 -0.063,-0.1471 -0.0947,-0.2836 -0.0947,-0.4093 v -20.3187 c 0,-0.2941 0.0736,-0.4726 0.2207,-0.5355 0.1469,-0.0632 0.2834,-0.0947 0.4093,-0.0947 h 11.0255 c 0.3151,0 0.4725,0.1154 0.4725,0.3465 l -0.0631,0.3151 -0.6299,2.2366 c -0.063,0.168 -0.1418,0.2941 -0.2362,0.3781 -0.0946,0.0839 -0.2573,0.126 -0.4883,0.126 h -6.4263 v 5.1664 h 2.205 c 0.9241,0 1.7904,0.0785 2.599,0.2361 0.8085,0.1575 1.5487,0.4672 2.2207,0.9292 0.672,0.462 1.2076,1.0711 1.6066,1.8272 0.5042,0.966 0.7559,2.1631 0.7559,3.5911 z m -4.2525,-0.0944 c 0,-1.0082 -0.273,-1.7745 -0.8191,-2.2997 -0.5459,-0.5251 -1.5016,-0.7874 -2.8667,-0.7874 h -1.4489 v 6.2057 h 1.1338 c 1.2183,0 2.1213,-0.1575 2.7094,-0.4726 0.861,-0.462 1.2915,-1.344 1.2915,-2.646 z"
       style="fill:#ffffff;fill-rule:evenodd"
       id="path4" />
  </g>
  <g
     id="Layer1002">
    <g
       id="Layer1003">
      <path
         d="m 129.2711,18.2229 c 0.4902,0 0.9553,0.4223 0.9553,0.9009 v 10.1095 c 0,0.1686 -0.1795,0.3396 -0.3829,0.2428 l -10.6125,-4.71 c -0.8863,-0.3937 -1.1257,-0.3937 -2.0121,0 l -10.6121,4.71 c -0.2036,0.0968 -0.3832,-0.0742 -0.3832,-0.2428 V 19.1238 c 0,-0.4786 0.465,-0.9009 0.9552,-0.9009 z"
         style="fill:#1b1918;fill-rule:evenodd"
         id="path5" />
      <path
         d="m 106.8011,35.8082 10.9715,-4.8664 c 0.3142,-0.141 0.5908,-0.141 0.9051,0 l 10.9711,4.8664 c 0.5816,0.2574 0.4482,0.6428 0.0107,0.836 l -10.7494,4.8487 c -0.5597,0.2526 -0.8105,0.2526 -1.3702,0 l -10.7493,-4.8487 c -0.4375,-0.1932 -0.5707,-0.5786 0.0105,-0.836 z"
         style="fill:#1b1918;fill-rule:evenodd"
         id="path6" />
    </g>
    <path
       d="m 55.8235,19.1158 -0.1258,0.5354 -4.8513,16.8218 c -0.1681,0.6092 -0.378,1.1655 -0.6301,1.6695 -0.3148,0.6513 -0.6822,1.1551 -1.1024,1.5123 -0.4199,0.3569 -0.9029,0.6353 -1.449,0.8347 -0.5459,0.1997 -1.2285,0.2994 -2.0474,0.2994 -1.1552,0 -2.3312,-0.2626 -3.5282,-0.7876 -0.3992,-0.189 -0.6407,-0.3465 -0.7247,-0.4726 -0.084,-0.126 -0.0945,-0.2729 -0.0314,-0.4408 l 0.9764,-2.3629 c 0.021,-0.084 0.0682,-0.1364 0.1417,-0.1573 0.0736,-0.0211 0.1313,-0.0421 0.1733,-0.0631 0.084,0 0.252,0.0735 0.5042,0.2204 0.7561,0.4412 1.4175,0.6617 1.9845,0.6617 0.6092,0 1.1235,-0.1785 1.5436,-0.5356 0.42,-0.3569 0.7244,-0.9032 0.9134,-1.6381 l 0.2836,-1.0396 H 45.775 c -0.1683,0 -0.294,-0.0943 -0.3784,-0.2834 L 40.01,19.5881 39.8526,19.0527 c 0,-0.1891 0.3045,-0.3152 0.9135,-0.3781 l 2.8352,-0.2518 c 0.1048,-0.0211 0.1995,-0.0316 0.2836,-0.0316 0.0837,0 0.1363,0 0.1573,0 0.2101,0 0.336,0.0262 0.378,0.0788 0.0421,0.0525 0.1156,0.236 0.2206,0.5511 l 2.4257,7.5605 1.323,4.5046 h 0.1261 l 1.1025,-4.5046 1.9529,-7.4975 c 0.0211,-0.126 0.063,-0.2833 0.1258,-0.4724 0.0633,-0.1889 0.2522,-0.2625 0.5672,-0.2205 l 2.8982,0.3463 c 0.4409,0.0633 0.6613,0.1893 0.6613,0.3783 z m 17.293,25.6107 c 0,0.4201 -0.2101,0.63 -0.6299,0.63 h -2.7405 c -0.294,0 -0.4726,-0.0734 -0.5356,-0.2205 C 69.1474,44.989 69.116,44.8525 69.116,44.7265 V 40.2533 H 57.7755 c -0.2941,0 -0.4726,-0.0735 -0.5356,-0.2205 -0.0629,-0.1471 -0.0945,-0.2836 -0.0945,-0.4093 V 19.3047 c 0,-0.294 0.0735,-0.4726 0.2206,-0.5354 0.1469,-0.0633 0.2834,-0.0947 0.4095,-0.0947 h 3.0241 c 0.2941,0 0.4725,0.0737 0.5356,0.2204 0.0629,0.1472 0.0945,0.2836 0.0945,0.4097 v 17.5464 h 5.5126 V 19.3047 c 0,-0.294 0.0737,-0.4726 0.2206,-0.5354 0.1471,-0.0633 0.2836,-0.0947 0.4095,-0.0947 h 3.0241 c 0.2941,0 0.4726,0.0737 0.5356,0.2204 0.0631,0.1472 0.0946,0.2836 0.0946,0.4097 v 17.5464 h 1.2599 c 0.4198,0 0.6299,0.2101 0.6299,0.6301 z m 14.0484,-5.9537 c 0,0.105 -0.0315,0.1994 -0.0946,0.2834 -0.0629,0.0839 -0.1573,0.1682 -0.2834,0.2522 -0.5462,0.4408 -1.2654,0.798 -2.1578,1.0709 -0.8925,0.2731 -1.8114,0.4096 -2.7564,0.4096 -2.226,0 -3.9902,-0.6195 -5.2925,-1.8586 -1.0709,-1.0082 -1.8374,-2.4468 -2.2996,-4.3157 -0.3358,-1.3652 -0.5038,-2.9824 -0.5038,-4.8513 0,-4.3472 0.9134,-7.4975 2.7406,-9.4506 1.3651,-1.4491 3.1185,-2.1736 5.2607,-2.1736 0.8821,0 1.7326,0.1261 2.5517,0.3781 0.819,0.2521 1.5436,0.651 2.1734,1.197 0.3991,0.336 0.5987,0.6092 0.5987,0.8189 0,0.0631 -0.0525,0.1996 -0.1575,0.4097 l -1.1656,1.7641 c -0.1258,0.2099 -0.2415,0.3149 -0.3465,0.3149 -0.084,0 -0.1891,-0.0368 -0.3149,-0.1101 -0.1261,-0.0735 -0.2415,-0.1524 -0.3465,-0.2364 -0.4622,-0.378 -0.8927,-0.6613 -1.2917,-0.8504 -0.3988,-0.189 -0.84,-0.2835 -1.323,-0.2835 -1.0712,0 -1.9217,0.3361 -2.5518,1.0079 -0.4829,0.5041 -0.8294,1.276 -1.0395,2.3156 -0.21,1.0394 -0.315,2.5987 -0.315,4.6779 0,1.134 0.0631,2.1945 0.1889,3.1815 0.2101,1.5541 0.5566,2.6674 1.0395,3.3393 0.2731,0.357 0.6407,0.6667 1.1028,0.9293 0.4621,0.2626 1.0185,0.3938 1.6696,0.3938 0.84,0 1.7011,-0.2625 2.583,-0.7876 0.1261,-0.0839 0.2626,-0.1681 0.4095,-0.252 0.1471,-0.0841 0.2731,-0.126 0.3781,-0.126 0.1471,0 0.2836,0.105 0.4096,0.3149 l 0.9765,1.7642 c 0.105,0.189 0.1575,0.3465 0.1575,0.4726 z m 15.0875,-4.9459 c 0,1.6172 -0.3672,2.9402 -1.1024,3.9691 -1.176,1.6381 -3.2447,2.4573 -6.2058,2.4573 H 89.211 c -0.2938,0 -0.4724,-0.0735 -0.5353,-0.2205 -0.063,-0.1471 -0.0947,-0.2836 -0.0947,-0.4093 V 19.3047 c 0,-0.294 0.0736,-0.4726 0.2207,-0.5354 0.1469,-0.0633 0.2834,-0.0947 0.4093,-0.0947 h 11.0255 c 0.3151,0 0.4725,0.1154 0.4725,0.3465 l -0.0631,0.3151 -0.6299,2.2366 c -0.063,0.168 -0.1418,0.2941 -0.2362,0.3781 -0.0946,0.0838 -0.2573,0.126 -0.4884,0.126 h -6.4262 v 5.1664 h 2.205 c 0.9241,0 1.7904,0.0785 2.599,0.236 0.8085,0.1576 1.5487,0.4673 2.2207,0.9293 0.672,0.462 1.2076,1.0711 1.6066,1.8272 0.5042,0.966 0.7559,2.1631 0.7559,3.5911 z m -4.2525,-0.0944 c 0,-1.0082 -0.273,-1.7745 -0.8191,-2.2997 -0.5459,-0.5251 -1.5016,-0.7874 -2.8667,-0.7874 h -1.4489 v 6.2057 h 1.1338 c 1.2183,0 2.1213,-0.1575 2.7094,-0.4726 0.861,-0.462 1.2915,-1.344 1.2915,-2.646 z"
       style="fill:#1b1918;fill-rule:evenodd"
       id="path7" />
  </g>
</svg>
